<svg id="Layer_1" data-name="Layer 1" xmlns="http://www.w3.org/2000/svg" viewBox="0 0 198.12 86"><title>Artboard 3</title><path d="M36.53,55.32V29.94H52.17a3.11,3.11,0,0,1,3.38,3.2v5.64a4.09,4.09,0,0,1-3.46,3.95c2.33.56,3.65,2.14,3.65,3.84v5.53a3.08,3.08,0,0,1-3.38,3.23ZM49.28,35.39A.38.38,0,0,0,48.9,35H43v5.26H48.9a.37.37,0,0,0,.38-.41Zm0,9.93a.38.38,0,0,0-.38-.41H43v5.6H48.9a.35.35,0,0,0,.38-.38ZM62.37,29.94h6.5V49.83H77v5.49H62.37Zm38.77,25.38H94.59V49H88.84v6.32H82.3V32.91a2.82,2.82,0,0,1,3-3h12.9a2.82,2.82,0,0,1,3,3ZM94.59,43.51V35.88c0-.45-.38-.75-.9-.75H89.63a.76.76,0,0,0-.79.75v7.63Zm31.93,2.33v6.58a2.91,2.91,0,0,1-3,2.9H110.8a2.85,2.85,0,0,1-2.9-2.9V32.79a2.89,2.89,0,0,1,2.9-2.86h12.75a3,3,0,0,1,3,2.86v6.54H120V35.8a.41.41,0,0,0-.34-.41h-4.78a.42.42,0,0,0-.41.41V49.45a.39.39,0,0,0,.41.38h4.78a.37.37,0,0,0,.34-.38V45.84Zm19.78,9.48-5-9.7L139.27,49v6.35h-6.54V29.94h6.54V40.5l6.58-10.57h7.29l-7.33,11,7.63,14.36ZM55.82,85.4H49.28V75.32h-6.2V85.4H36.53V60h6.54v9.7h6.2V60h6.54Zm25.83,0H75.11V79.08H69.36V85.4H62.82V63a2.82,2.82,0,0,1,3-3h12.9a2.82,2.82,0,0,1,3,3ZM75.11,73.59V66c0-.45-.38-.75-.9-.75H70.15a.76.76,0,0,0-.79.75v7.63ZM104.33,60v5.49H98.58V85.4H92V65.51H86.28V60Zm23.24,15.91v6.58a2.91,2.91,0,0,1-3,2.9H111.85a2.85,2.85,0,0,1-2.9-2.9V62.88a2.89,2.89,0,0,1,2.9-2.86H124.6a3,3,0,0,1,3,2.86v6.54H121V65.89a.41.41,0,0,0-.34-.41h-4.78a.42.42,0,0,0-.41.41V79.54a.39.39,0,0,0,.41.38h4.78a.37.37,0,0,0,.34-.38V75.93Zm25.5,9.48h-6.54V75.32h-6.2V85.4h-6.54V60h6.54v9.7h6.2V60h6.54ZM159.54,60h16.58v5.45H166v4.44h8.72v5.41H166v4.59h10.08V85.4H159.54Zm38.58,0v5.49h-5.75V85.4h-6.54V65.51h-5.75V60ZM31.59,2.34V0H21.75s-.18.77-.46,2.25C8,1.82,1,0,1,0-2.16,13.63,3.2,21.78,3.2,21.78A29.39,29.39,0,0,1,19.72,13.3a211.54,211.54,0,0,0-1.11,22.1c0,22.12.18,34-4.53,40-3.44,4.38-2.72,6.17.72,8.4,4.48,2.9,6.5,2.71,7.26.57s5.51-12,5.51-32.37-.67-27.22,4-31.92V12.8h5.14V2.34Z"/></svg>